{
    "asset" : {
        "generator" : "Khronos glTF Blender I/O v1.8.19",
        "version" : "2.0"
    },
    "extensionsUsed" : [
        "KHR_materials_transmission"
    ],
    "scene" : 0,
    "scenes" : [
        {
            "name" : "Scene",
            "nodes" : [
                0
            ]
        }
    ],
    "nodes" : [
        {
            "mesh" : 0,
            "name" : "Floor"
        }
    ],
    "materials" : [
        {
            "doubleSided" : true,
            "name" : "Floor",
            "pbrMetallicRoughness" : {
                "baseColorFactor" : [
                    0.8000000715255737,
                    0.6974183320999146,
                    0.10095749795436859,
                    1
                ],
                "metallicFactor" : 0,
                "roughnessFactor" : 0.5
            }
        },
        {
            "doubleSided" : true,
            "extensions" : {
                "KHR_materials_transmission" : {
                    "transmissionFactor" : 1
                }
            },
            "name" : "Glass",
            "pbrMetallicRoughness" : {
                "baseColorFactor" : [
                    0.4516109526157379,
                    0.8000000715255737,
                    0.36644476652145386,
                    1
                ],
                "metallicFactor" : 0,
                "roughnessFactor" : 0
            }
        },
        {
            "doubleSided" : true,
            "name" : "Metal",
            "pbrMetallicRoughness" : {
                "baseColorFactor" : [
                    0.2929503917694092,
                    0.2929503917694092,
                    0.2929503917694092,
                    1
                ],
                "metallicFactor" : 0.6201298832893372,
                "roughnessFactor" : 0.5
            }
        }
    ],
    "meshes" : [
        {
            "name" : "Cylinder",
            "primitives" : [
                {
                    "attributes" : {
                        "POSITION" : 0,
                        "NORMAL" : 1,
                        "TEXCOORD_0" : 2
                    },
                    "indices" : 3,
                    "material" : 0
                },
                {
                    "attributes" : {
                        "POSITION" : 4,
                        "NORMAL" : 5,
                        "TEXCOORD_0" : 6
                    },
                    "indices" : 7,
                    "material" : 1
                },
                {
                    "attributes" : {
                        "POSITION" : 8,
                        "NORMAL" : 9,
                        "TEXCOORD_0" : 10
                    },
                    "indices" : 11,
                    "material" : 2
                }
            ]
        }
    ],
    "accessors" : [
        {
            "bufferView" : 0,
            "componentType" : 5126,
            "count" : 2144,
            "max" : [
                2.147005558013916,
                1.8251906633377075,
                2.147005558013916
            ],
            "min" : [
                -2.147005558013916,
                0,
                -2.147005558013916
            ],
            "type" : "VEC3"
        },
        {
            "bufferView" : 1,
            "componentType" : 5126,
            "count" : 2144,
            "type" : "VEC3"
        },
        {
            "bufferView" : 2,
            "componentType" : 5126,
            "count" : 2144,
            "type" : "VEC2"
        },
        {
            "bufferView" : 3,
            "componentType" : 5123,
            "count" : 3618,
            "type" : "SCALAR"
        },
        {
            "bufferView" : 4,
            "componentType" : 5126,
            "count" : 32,
            "max" : [
                2,
                1.277560830116272,
                2
            ],
            "min" : [
                -2,
                0.49048805236816406,
                -2
            ],
            "type" : "VEC3"
        },
        {
            "bufferView" : 5,
            "componentType" : 5126,
            "count" : 32,
            "type" : "VEC3"
        },
        {
            "bufferView" : 6,
            "componentType" : 5126,
            "count" : 32,
            "type" : "VEC2"
        },
        {
            "bufferView" : 7,
            "componentType" : 5123,
            "count" : 48,
            "type" : "SCALAR"
        },
        {
            "bufferView" : 8,
            "componentType" : 5126,
            "count" : 720,
            "max" : [
                2,
                2,
                2
            ],
            "min" : [
                -2,
                0.3408748209476471,
                -2
            ],
            "type" : "VEC3"
        },
        {
            "bufferView" : 9,
            "componentType" : 5126,
            "count" : 720,
            "type" : "VEC3"
        },
        {
            "bufferView" : 10,
            "componentType" : 5126,
            "count" : 720,
            "type" : "VEC2"
        },
        {
            "bufferView" : 11,
            "componentType" : 5123,
            "count" : 1098,
            "type" : "SCALAR"
        }
    ],
    "bufferViews" : [
        {
            "buffer" : 0,
            "byteLength" : 25728,
            "byteOffset" : 0
        },
        {
            "buffer" : 0,
            "byteLength" : 25728,
            "byteOffset" : 25728
        },
        {
            "buffer" : 0,
            "byteLength" : 17152,
            "byteOffset" : 51456
        },
        {
            "buffer" : 0,
            "byteLength" : 7236,
            "byteOffset" : 68608
        },
        {
            "buffer" : 0,
            "byteLength" : 384,
            "byteOffset" : 75844
        },
        {
            "buffer" : 0,
            "byteLength" : 384,
            "byteOffset" : 76228
        },
        {
            "buffer" : 0,
            "byteLength" : 256,
            "byteOffset" : 76612
        },
        {
            "buffer" : 0,
            "byteLength" : 96,
            "byteOffset" : 76868
        },
        {
            "buffer" : 0,
            "byteLength" : 8640,
            "byteOffset" : 76964
        },
        {
            "buffer" : 0,
            "byteLength" : 8640,
            "byteOffset" : 85604
        },
        {
            "buffer" : 0,
            "byteLength" : 5760,
            "byteOffset" : 94244
        },
        {
            "buffer" : 0,
            "byteLength" : 2196,
            "byteOffset" : 100004
        }
    ],
    "buffers" : [
        {
            "byteLength" : 102200,
            "uri" : "data:application/octet-stream;base64,"
        }
    ]
}
